<svg width="812" height="518" viewBox="0 0 812 518" fill="none" xmlns="http://www.w3.org/2000/svg">
<path d="M757.296 509.758L52.7421 515C10.1456 502.21 15.6231 482.624 27.8484 444.499C52.742 396.538 46.2008 399.143 36.3647 383.958C-45.3191 295.351 18.3536 141.961 150.225 122.471C208.66 113.834 340.546 172.839 349.86 122.471C468.105 -64.6559 888.805 68.8299 785.137 248.462C757.884 286.949 766.063 314.391 771.955 334.157L772.035 334.425C836.351 450.795 816.881 480.508 757.296 509.758Z" fill="url(#paint0_linear_800_482)"/>
<rect x="65" y="165" width="100" height="47" stroke="#CCE1FF" stroke-width="4"/>
<rect x="70" y="171" width="89" height="6" fill="#CCE1FF"/>
<rect x="70" y="181" width="89" height="6" fill="#CCE1FF"/>
<rect x="70" y="190" width="89" height="6" fill="#ECD1C3"/>
<rect x="70" y="200" width="89" height="6" fill="#CCE1FF"/>
<rect x="125" y="494" width="562" height="20" fill="#8EB2E9"/>
<path d="M515.628 109C481.706 108.827 413.368 108.585 411.392 109C394.595 102.519 408.921 69.595 429.423 79.4463C427.694 54.8182 464.498 57.1515 468.203 72.9654C479.318 53.522 507.724 62.3363 507.724 83.0758C523.779 86.446 523.779 100.704 515.628 109Z" fill="#F2BA7D" fill-opacity="0.43"/>
<rect x="324" y="136" width="179" height="362" fill="#AECDFB" stroke="#91B5E9" stroke-width="2"/>
<rect x="304" y="486" width="218" height="28" fill="#A9D1FF"/>
<g filter="url(#filter0_d_800_482)">
<rect x="297" y="479" width="232" height="7" fill="#FF781D"/>
</g>
<path d="M278 122H550V125C550 130.523 545.523 135 540 135H288C282.477 135 278 130.523 278 125V122Z" fill="#8BB5F2"/>
<g filter="url(#filter1_d_800_482)">
<path d="M315 135H512V138C512 143.523 507.523 148 502 148H325C319.477 148 315 143.523 315 138V135Z" fill="#AECDFB"/>
</g>
<path d="M344 170V332H481" stroke="#91B5E9" stroke-width="4"/>
<circle cx="645" cy="326" r="68" fill="#AECDFB" fill-opacity="0.29"/>
<rect x="346" y="354" width="133" height="103" stroke="#91B5E9" stroke-width="4"/>
<rect x="354.5" y="171.5" width="126" height="6" stroke="#91B5E9"/>
<rect x="473.348" y="323.481" width="145.982" height="6" transform="rotate(-89.5526 473.348 323.481)" stroke="#91B5E9"/>
<path d="M474.019 178.626L355.139 178.322C433.705 193.59 456.814 219.178 473.748 284.654L474.019 178.626Z" fill="#000941" fill-opacity="0.12"/>
<path d="M477.85 355.514L362.273 355.218C438.658 369.541 461.127 393.537 477.596 454.934L477.85 355.514Z" fill="#000941" fill-opacity="0.06"/>
<g filter="url(#filter2_d_800_482)">
<rect x="486" y="331" width="13" height="31" rx="2" fill="#283274"/>
</g>
<rect x="488" y="337" width="9" height="2" rx="1" fill="#FF0000"/>
<path d="M480.5 83.4168C498.679 83.4168 513.416 68.6795 513.416 50.5002C513.416 32.3208 498.679 17.5835 480.5 17.5835C462.32 17.5835 447.583 32.3208 447.583 50.5002C447.583 68.6795 462.32 83.4168 480.5 83.4168Z" stroke="#FF6700" stroke-width="6" stroke-linecap="round" stroke-linejoin="round"/>
<path d="M480.5 33.3486V51.3032" stroke="#FF6700" stroke-width="9" stroke-linecap="round" stroke-linejoin="round"/>
<path d="M480.5 66.6665H480.532" stroke="#FF6700" stroke-width="10" stroke-linecap="round" stroke-linejoin="round"/>
<path d="M215.88 296.171V279.079L200.128 272.864L195.832 289.956C203.496 296.974 207.895 297.935 215.88 296.171Z" fill="url(#paint1_linear_800_482)"/>
<path d="M215.88 286.848V280.633V277.526L201.56 274.418L200.128 275.972C203.668 282.59 207.363 284.739 215.88 286.848Z" fill="#EF9F5F"/>
<path d="M197.265 265.094C197.265 275.392 203.677 280.632 211.585 280.632C225.904 279.078 224.472 275.971 225.904 261.987C225.904 244.895 219.492 243.341 211.585 243.341C203.677 243.341 195.833 254.217 197.265 265.094Z" fill="#FAC69C"/>
<path d="M215.881 254.218C220.913 256.511 223.737 256.735 228.769 254.218C233.514 249.418 232.646 244.642 230.201 235.572L225.905 238.68C220.744 242.014 216.769 242.482 207.289 240.234C198.308 239.948 195.956 241.631 194.401 246.45V255.772C194.467 262.38 195.209 264.9 197.265 268.203C199.052 268.761 199.576 266.909 200.129 261.988C200.928 259.405 201.59 259.286 202.993 260.434C204.356 262.978 204.984 263.151 205.857 260.433C209.019 253.86 211.284 252.843 215.881 254.218Z" fill="#02082E"/>
<path d="M192.137 255.29C191.555 257.921 189.922 258.933 185.417 260.222L181.561 255.363L183.31 252.656C186.366 245.498 188.255 242.597 192.365 241.352C198.831 238.946 200.376 241.464 201.825 248.362C197.119 249.875 195.101 251.606 192.137 255.29Z" fill="url(#paint2_linear_800_482)"/>
<path d="M253.111 299.279L258.839 303.94C264.564 301.042 265.581 299.723 264.567 297.725L258.839 294.617C256.411 291.888 255.511 290.134 254.543 286.848C252.605 281.568 251.685 281.011 250.248 285.294C249.609 292.704 250.497 295.479 253.111 299.279Z" fill="#FCD2B0"/>
<g filter="url(#filter3_d_800_482)">
<path d="M213.016 495.058V479.52L221.608 481.074C223.716 485.524 231.649 487.146 243.087 490.397C245.112 492.274 245.209 493.34 243.087 495.058H213.016Z" fill="#163561"/>
<path d="M213.016 495.058V479.52L221.608 481.074C223.716 485.524 231.649 487.146 243.087 490.397C245.112 492.274 245.209 493.34 243.087 495.058H213.016Z" stroke="#163561"/>
</g>
<path d="M235.925 326.208C231.588 319.258 228.456 316.409 222.591 310.51L223.923 340.48L235.925 346.189C240.58 348.004 242.579 347.378 245.257 343.334C249.929 333.947 253.036 322.979 258.563 303.469L258.591 303.375L250.59 296.239C240.729 311.388 235.958 319.254 235.925 326.208Z" fill="#163561"/>
<path d="M224.473 481.074L223.041 370.754H211.585L201.561 408.045C202.386 436.558 204.677 452.546 211.585 481.074C218.057 483.514 220.792 483.436 224.473 481.074Z" fill="#FA9746"/>
<path d="M163.591 482.228C163.849 476.7 165.367 474.564 169.508 471.739L173.945 473.05L175.422 474.361C175.55 479.774 177.41 481.658 178.381 483.54C182.485 488.834 184.74 490.13 188.735 491.407C193.171 492.718 191.858 495.783 188.735 496.652H182.817C178.275 496.686 176.306 496.508 175.422 495.34C170.591 489.614 169.508 487.447 166.549 484.851C164.633 483.764 163.936 483.234 163.591 482.228Z" fill="#163561"/>
<path d="M176.032 428.245C184.878 415.814 178.981 395.615 187.825 367.646L217.312 372.307C204.044 415.814 177.507 476.413 177.507 476.413L168.66 471.751C168.353 449.703 170.003 440.237 176.032 428.245Z" fill="#FA9746"/>
<path d="M224.376 380.292C227.971 330.617 227.088 309.746 215.564 296.47C206.795 297.623 202.429 295.384 195.001 289.485C188.637 295.917 186.014 300.097 186.224 310.44C186.754 337.051 186.356 351.442 183.251 373.305C199.766 379.756 208.736 381.047 224.376 380.292Z" fill="#2A4F96"/>
<path d="M157.308 292.879L182.5 318.5C182.5 318.5 184.196 299.859 187 296C189.805 292.141 175.086 285.149 175.086 285.149C176.84 279.399 191.656 266.332 189.987 255.687C185.964 256.186 184.083 251.321 180.099 254.187C164.599 276.448 154.962 289.879 157.308 292.879Z" fill="#2A4F96"/>
<path d="M190.358 323.955L186.748 319.152L186.5 346.072C192.491 334.871 190.526 337.444 190.358 323.955Z" fill="#163561"/>
<path d="M195 293C188.752 294.757 185.748 291.743 179.5 293.5L179 315L191 327L195 293Z" fill="#2A4F96"/>
<path d="M201.251 418.801L216.994 380.485H223.251V409.222L202.718 432.485L201.251 418.801Z" fill="#ED7D2B"/>
<path d="M265.874 272.077L273.346 276.68C274.033 277.104 274.274 278.053 273.884 278.799L263.984 297.715C263.594 298.461 262.72 298.723 262.032 298.299L254.561 293.695C253.873 293.272 253.632 292.323 254.023 291.577L263.922 272.661C264.313 271.915 265.187 271.653 265.874 272.077Z" fill="#000941"/>
<path d="M265.819 274.157L270.201 276.931C270.884 277.363 271.114 278.314 270.716 279.056L262.137 295.016C261.739 295.757 260.862 296.008 260.179 295.575L255.797 292.802C255.114 292.37 254.883 291.418 255.281 290.677L263.861 274.717C264.259 273.976 265.136 273.725 265.819 274.157Z" fill="#24498F"/>
<g filter="url(#filter4_d_800_482)">
<path d="M710.5 104C641.834 103.667 503.5 103.2 499.5 104C465.5 91.5 494.5 28 536 47.0001C532.5 -0.499954 607 4.00036 614.5 34.5004C637 -2.99992 694.5 14.0001 694.5 54.0003C727 60.5003 727 88.0003 710.5 104Z" fill="#CADFFE"/>
</g>
<path d="M797.883 64C752.944 63.7696 662.41 63.4469 659.792 64C637.54 55.3585 656.52 11.46 683.68 24.595C681.389 -8.2424 730.147 -5.13127 735.055 15.9538C749.781 -9.97066 787.412 1.78172 787.412 29.4344C808.682 33.928 808.682 52.9391 797.883 64Z" fill="#AECDFB"/>
<path d="M746.979 113.628C743.239 114.563 695.469 113.413 694.473 113.628C684.611 111.447 692.592 92.4377 703.556 98.2786C704.256 90.2563 714.385 91.1909 716.841 94.9304C722.44 84.8318 741.704 88.5217 741.704 99.2936C753.368 98.2786 752.754 113.005 746.979 113.628Z" fill="#AECDFB"/>
<path d="M504 348H578" stroke="black" stroke-width="3" stroke-dasharray="8 8"/>
<path d="M641 258V99" stroke="black" stroke-width="3" stroke-dasharray="10 10"/>
<path d="M590.613 311.01C622.041 285.257 670.492 290.495 694.499 311.011" stroke="#F1BA7D" stroke-width="13"/>
<path d="M684.66 328.668C662.026 304.683 625.88 303.603 602.041 326.18C601.145 327.029 601.089 328.511 601.91 329.444L606.276 334.406C607.059 335.297 608.354 335.355 609.213 334.549C628.85 316.13 658.415 317.016 677.065 336.592C677.88 337.448 679.177 337.467 680.005 336.626L684.622 331.934C685.489 331.052 685.511 329.569 684.66 328.668ZM642.62 355.433C637.983 355.294 634.119 359.252 633.988 364.275C633.857 369.298 637.509 372.36 642.146 372.5C646.783 372.64 650.648 369.803 650.779 364.78C650.91 359.757 647.258 355.573 642.62 355.433ZM669.516 344.356C654.774 329.417 631.824 328.742 616.344 342.755C615.417 343.595 615.348 345.099 616.184 346.043L620.576 351.008C621.341 351.873 622.606 351.968 623.465 351.209C634.746 341.229 651.247 341.748 661.965 352.368C662.782 353.178 664.051 353.161 664.86 352.342L669.504 347.648C670.388 346.756 670.397 345.249 669.516 344.356Z" fill="#FA8501" fill-opacity="0.51"/>
<path d="M586.713 282.006L687.198 364.967" stroke="#FA8501" stroke-width="14" stroke-linecap="round"/>
<path d="M192.608 196.681L198.801 216.654L195.667 217.672L188.934 197.875L192.608 196.681ZM199.834 225.16C199.167 225.377 198.518 225.324 197.885 225.002C197.253 224.68 196.828 224.186 196.612 223.519C196.395 222.853 196.448 222.203 196.77 221.571C197.092 220.938 197.586 220.514 198.253 220.297C198.919 220.081 199.569 220.133 200.201 220.456C200.834 220.778 201.258 221.272 201.475 221.938C201.618 222.38 201.637 222.822 201.532 223.264C201.436 223.703 201.24 224.096 200.944 224.441C200.654 224.774 200.284 225.014 199.834 225.16Z" fill="#2A4F96"/>
<path d="M164.691 212.259L181.105 225.215L179.098 227.83L162.339 215.324L164.691 212.259ZM186.772 231.643C186.345 232.198 185.78 232.523 185.076 232.615C184.373 232.708 183.743 232.541 183.187 232.114C182.631 231.687 182.307 231.122 182.214 230.418C182.122 229.715 182.289 229.085 182.716 228.529C183.142 227.973 183.707 227.649 184.411 227.556C185.115 227.464 185.745 227.631 186.301 228.057C186.669 228.34 186.935 228.693 187.098 229.118C187.268 229.534 187.329 229.969 187.28 230.421C187.23 230.86 187.06 231.267 186.772 231.643Z" fill="#2A4F96"/>
<g filter="url(#filter5_d_800_482)">
<path d="M108.443 480.403H63.835V504.25C64.1082 509.457 65.9863 510.749 70.4659 512H102.415C107.259 510.174 108.042 508.216 108.443 504.25V480.403Z" fill="#B2D3FC"/>
</g>
<path d="M112.749 426.553C108.638 435.942 102.602 434.942 97.2815 432.613C91.9609 430.283 90.6109 424.674 94.7213 415.285C98.8317 405.895 117.847 400.423 123.168 402.752C116.861 409.445 116.859 417.164 112.749 426.553Z" fill="#B2D3FC"/>
<path d="M62.022 442.685C64.8626 452.533 70.9777 452.334 76.5583 450.725C82.1389 449.115 84.2145 443.732 81.3739 433.883C78.5332 424.035 60.4017 416.111 54.8211 417.72C60.1933 425.185 59.1813 432.836 62.022 442.685Z" fill="url(#paint3_linear_800_482)"/>
<path d="M114.622 360.402C108.161 374.033 101.854 373.494 96.6057 371.006C91.3572 368.519 91.1047 360.912 97.5654 347.28C104.026 333.649 125.751 323.36 131 325.848C122.745 336.041 121.083 346.771 114.622 360.402Z" fill="#A3B0FB"/>
<path d="M62.1326 376.055C67.8713 390.006 74.1981 389.797 79.5696 387.588C84.941 385.378 85.5912 377.795 79.8525 363.844C74.1138 349.893 52.9569 338.482 47.5855 340.691C55.2951 351.303 56.394 362.105 62.1326 376.055Z" fill="#B2D3FC"/>
<path d="M89.8564 512C99.2925 507.5 98.4334 498.96 98.2504 485.049H108.443V505.875C107.601 509.352 106.467 510.733 103.047 512H89.8564Z" fill="#5C6AC5"/>
<path d="M90.1083 481.332C92.0862 450.861 95.0454 439.84 101.629 424.46M73.1299 442.689C80.6057 457.873 82.4428 466.334 81.6191 481.332M86.4701 481.332C85.8348 411.56 90.0606 391.857 102.868 357.731M74.9885 373.88C85.5819 416.234 85.1192 434.138 84.0446 481.332" stroke="#000941" stroke-opacity="0.36" stroke-linecap="round"/>
<circle cx="641" cy="95" r="5" fill="black"/>
<defs>
<filter id="filter0_d_800_482" x="293" y="478" width="240" height="15" filterUnits="userSpaceOnUse" color-interpolation-filters="sRGB">
<feFlood flood-opacity="0" result="BackgroundImageFix"/>
<feColorMatrix in="SourceAlpha" type="matrix" values="0 0 0 0 0 0 0 0 0 0 0 0 0 0 0 0 0 0 127 0" result="hardAlpha"/>
<feOffset dy="3"/>
<feGaussianBlur stdDeviation="2"/>
<feComposite in2="hardAlpha" operator="out"/>
<feColorMatrix type="matrix" values="0 0 0 0 0 0 0 0 0 0 0 0 0 0 0 0 0 0 0.25 0"/>
<feBlend mode="normal" in2="BackgroundImageFix" result="effect1_dropShadow_800_482"/>
<feBlend mode="normal" in="SourceGraphic" in2="effect1_dropShadow_800_482" result="shape"/>
</filter>
<filter id="filter1_d_800_482" x="311" y="135" width="205" height="21" filterUnits="userSpaceOnUse" color-interpolation-filters="sRGB">
<feFlood flood-opacity="0" result="BackgroundImageFix"/>
<feColorMatrix in="SourceAlpha" type="matrix" values="0 0 0 0 0 0 0 0 0 0 0 0 0 0 0 0 0 0 127 0" result="hardAlpha"/>
<feOffset dy="4"/>
<feGaussianBlur stdDeviation="2"/>
<feComposite in2="hardAlpha" operator="out"/>
<feColorMatrix type="matrix" values="0 0 0 0 0 0 0 0 0 0 0 0 0 0 0 0 0 0 0.25 0"/>
<feBlend mode="normal" in2="BackgroundImageFix" result="effect1_dropShadow_800_482"/>
<feBlend mode="normal" in="SourceGraphic" in2="effect1_dropShadow_800_482" result="shape"/>
</filter>
<filter id="filter2_d_800_482" x="485" y="330" width="21" height="39" filterUnits="userSpaceOnUse" color-interpolation-filters="sRGB">
<feFlood flood-opacity="0" result="BackgroundImageFix"/>
<feColorMatrix in="SourceAlpha" type="matrix" values="0 0 0 0 0 0 0 0 0 0 0 0 0 0 0 0 0 0 127 0" result="hardAlpha"/>
<feOffset dx="3" dy="3"/>
<feGaussianBlur stdDeviation="2"/>
<feComposite in2="hardAlpha" operator="out"/>
<feColorMatrix type="matrix" values="0 0 0 0 0 0 0 0 0 0 0 0 0 0 0 0 0 0 0.25 0"/>
<feBlend mode="normal" in2="BackgroundImageFix" result="effect1_dropShadow_800_482"/>
<feBlend mode="normal" in="SourceGraphic" in2="effect1_dropShadow_800_482" result="shape"/>
</filter>
<filter id="filter3_d_800_482" x="210.516" y="478.921" width="36.627" height="20.6367" filterUnits="userSpaceOnUse" color-interpolation-filters="sRGB">
<feFlood flood-opacity="0" result="BackgroundImageFix"/>
<feColorMatrix in="SourceAlpha" type="matrix" values="0 0 0 0 0 0 0 0 0 0 0 0 0 0 0 0 0 0 127 0" result="hardAlpha"/>
<feOffset dy="2"/>
<feGaussianBlur stdDeviation="1"/>
<feComposite in2="hardAlpha" operator="out"/>
<feColorMatrix type="matrix" values="0 0 0 0 0 0 0 0 0 0 0 0 0 0 0 0 0 0 0.25 0"/>
<feBlend mode="normal" in2="BackgroundImageFix" result="effect1_dropShadow_800_482"/>
<feBlend mode="normal" in="SourceGraphic" in2="effect1_dropShadow_800_482" result="shape"/>
</filter>
<filter id="filter4_d_800_482" x="469.538" y="8.42285" width="251.836" height="106.577" filterUnits="userSpaceOnUse" color-interpolation-filters="sRGB">
<feFlood flood-opacity="0" result="BackgroundImageFix"/>
<feColorMatrix in="SourceAlpha" type="matrix" values="0 0 0 0 0 0 0 0 0 0 0 0 0 0 0 0 0 0 127 0" result="hardAlpha"/>
<feOffset dx="-8" dy="4"/>
<feGaussianBlur stdDeviation="3.5"/>
<feComposite in2="hardAlpha" operator="out"/>
<feColorMatrix type="matrix" values="0 0 0 0 0 0 0 0 0 0 0 0 0 0 0 0 0 0 0.15 0"/>
<feBlend mode="normal" in2="BackgroundImageFix" result="effect1_dropShadow_800_482"/>
<feBlend mode="normal" in="SourceGraphic" in2="effect1_dropShadow_800_482" result="shape"/>
</filter>
<filter id="filter5_d_800_482" x="59.835" y="478.403" width="52.6074" height="39.5972" filterUnits="userSpaceOnUse" color-interpolation-filters="sRGB">
<feFlood flood-opacity="0" result="BackgroundImageFix"/>
<feColorMatrix in="SourceAlpha" type="matrix" values="0 0 0 0 0 0 0 0 0 0 0 0 0 0 0 0 0 0 127 0" result="hardAlpha"/>
<feOffset dy="2"/>
<feGaussianBlur stdDeviation="2"/>
<feComposite in2="hardAlpha" operator="out"/>
<feColorMatrix type="matrix" values="0 0 0 0 0 0 0 0 0 0 0 0 0 0 0 0 0 0 0.25 0"/>
<feBlend mode="normal" in2="BackgroundImageFix" result="effect1_dropShadow_800_482"/>
<feBlend mode="normal" in="SourceGraphic" in2="effect1_dropShadow_800_482" result="shape"/>
</filter>
<linearGradient id="paint0_linear_800_482" x1="411.855" y1="108.196" x2="411.855" y2="515" gradientUnits="userSpaceOnUse">
<stop stop-color="#ECF3FB" stop-opacity="0.43"/>
<stop offset="1" stop-color="#D8EAFF"/>
</linearGradient>
<linearGradient id="paint1_linear_800_482" x1="205.856" y1="285.294" x2="205.856" y2="296.939" gradientUnits="userSpaceOnUse">
<stop stop-color="#FCD2B0"/>
<stop offset="1" stop-color="#FCD2B0"/>
</linearGradient>
<linearGradient id="paint2_linear_800_482" x1="185.665" y1="260.405" x2="199.496" y2="241.739" gradientUnits="userSpaceOnUse">
<stop stop-color="#F3C29A"/>
<stop offset="1" stop-color="#FCD2B0"/>
</linearGradient>
<linearGradient id="paint3_linear_800_482" x1="72.8289" y1="437.809" x2="75.3841" y2="451.063" gradientUnits="userSpaceOnUse">
<stop stop-color="#FFB47B"/>
<stop offset="1" stop-color="#FFCEA9"/>
</linearGradient>
</defs>
</svg>
